<?xml version="1.0" encoding="utf-8" ?>	<!-- Generator: Assembly 2.2 - http://assemblyapp.co -->	<svg version="1.1" xmlns="http://www.w3.org/2000/svg" xmlns:xlink="http://www.w3.org/1999/xlink" width="2048.00" height="1152.00" viewBox="0 0 2048.0 1151.9999914169312">		<g id="document" transform="matrix(1,0,0,1,1024.0,575.9999957084656)">			<path d="M-483.951,114.239 L-483.951,115.111 L-478.331,115.111 L-148.796,115.111 L-143.176,115.111 L-143.176,104.323 L-142.954,104.101 L-143.176,103.878 L-143.176,103.873 L-143.182,103.873 L-146.928,100.127 L-324.518,-77.463 L-328.491,-81.4365 L-328.491,-81.4365 L-328.491,-81.4365 L-334.111,-81.4365 L-349.162,-81.4365 L-349.162,-140.824 L-349.162,-145.776 L-349.162,-145.776 L-349.095,-145.776 L-349.095,-157.015 L-354.715,-157.015 L-417.5,-157.015 L-423.12,-157.015 L-423.12,-145.776 L-417.5,-145.776 L-360.4,-145.776 L-360.4,-140.824 L-360.4,-78.039 L-360.4,-72.4196 L-360.399,-72.4196 L-360.399,-72.4196 L-360.399,-70.1978 L-354.779,-70.1978 L-334.111,-70.1978 L-333.147,-70.1978 L-332.465,-69.516 L-159.076,103.873 L-478.331,103.873 L-478.423,103.873 L-479.448,102.848 L-654.121,-71.8253 L-424.462,-71.8253 L-423.12,-71.8253 L-423.12,-71.8253 L-423.12,-71.7524 L-411.881,-71.7524 L-411.881,-77.3717 L-411.881,-140.157 L-411.881,-145.776 L-423.12,-145.776 L-423.12,-140.157 L-423.12,-83.064 L-424.462,-83.064 L-663.966,-83.064 L-665.36,-83.064 L-665.36,-83.064 L-710.327,-128.031 L-714.296,-132 L-718.27,-128.035 L-949.614,102.844 L-953.591,106.813 L-945.652,114.768 L-941.675,110.799 L-710.331,-120.08 L-718.274,-120.084 L-487.395,110.795 L-483.951,114.239 L-483.951,114.239 Z M-794.782,29.281 L-731.997,29.281 L-731.997,-9.00777 L-794.782,-9.00777 L-794.782,29.281 Z M-714.533,29.281 L-651.748,29.281 L-651.748,-9.00778 L-714.533,-9.00778 L-714.533,29.281 Z M-714.533,76.2717 L-651.748,76.2717 L-651.748,37.9829 L-714.533,37.9829 L-714.533,76.2717 Z M-794.782,76.2717 L-731.997,76.2717 L-731.997,37.9829 L-794.782,37.9829 L-794.782,76.2717 Z " fill="#00cfc8" fill-opacity="1.00" />			<path d="M-612.089,-62.8974 L-459.344,-62.8974 L-459.344,89.8477 L-612.089,-62.8974 Z " fill="#00cfc8" fill-opacity="1.00" />			<path d="M-44.101,17.4684 L21.5656,-51.6544 L-2.13361,-51.6544 L-73.5276,25.0719 L-73.5276,-51.6544 L-93.0794,-51.6544 L-93.0794,95.3796 L-73.5276,95.3796 L-73.5276,45.5125 L-58.913,29.9105 L-0.751154,95.3796 L24.6268,95.3796 L-44.101,17.4684 Z M139.074,40.2789 C139.074,22.307 134.466,8.10391 125.25,-2.33034 C116.033,-12.7646 103.69,-17.9817 88.2197,-17.9817 C72.6177,-17.9817 60.225,-12.7646 51.0416,-2.33034 C41.8581,8.10391 37.2664,22.307 37.2664,40.2789 C37.2664,58.2508 41.8581,72.4375 51.0416,82.8388 C60.225,93.2401 72.6177,98.4408 88.2197,98.4408 C103.69,98.4408 116.033,93.2401 125.25,82.8388 C134.466,72.4375 139.074,58.2508 139.074,40.2789 Z M119.917,40.2789 C119.917,54.2351 117.103,64.7517 111.475,71.8285 C105.846,78.9054 98.0944,82.4438 88.2197,82.4438 C78.2134,82.4438 70.4124,78.8725 64.8167,71.7298 C59.2211,64.5871 56.4233,54.1035 56.4233,40.2789 C56.4233,25.9935 59.2046,15.3783 64.7674,8.43307 C70.3301,1.48788 78.1476,-1.98472 88.2197,-1.98472 C98.1602,-1.98472 105.928,1.48788 111.524,8.43307 C117.12,15.3783 119.917,25.9935 119.917,40.2789 Z M260.039,23.7882 C260.039,10.2928 256.912,-0.0427005 250.658,-7.2183 C244.404,-14.3939 235.32,-17.9817 223.404,-17.9817 C216.887,-17.9817 210.534,-16.6322 204.346,-13.9331 C198.158,-11.234 192.167,-7.48163 186.374,-2.67595 L186.374,-14.9206 L167.81,-14.9206 L167.81,95.3796 L186.374,95.3796 L186.374,13.0248 C191.443,9.14075 196.742,5.94794 202.272,3.44635 C207.802,0.944768 213.102,-0.306025 218.171,-0.306025 C223.108,-0.306025 227.124,0.368745 230.218,1.71828 C233.312,3.06782 235.682,5.12505 237.327,7.88996 C238.907,10.3915 239.994,13.8641 240.586,18.3077 C241.179,22.7514 241.475,27.5077 241.475,32.5767 L241.475,95.3796 L260.039,95.3796 L260.039,23.7882 Z M388.114,32.0829 C388.114,16.0859 384.082,3.74259 376.017,-4.94713 C367.953,-13.6368 356.482,-17.9817 341.604,-17.9817 C325.541,-17.9817 312.589,-12.6823 302.747,-2.08347 C292.905,8.51536 287.985,22.8336 287.985,40.8714 C287.985,59.1066 293.119,73.1781 303.389,83.0857 C313.659,92.9933 327.944,97.9471 346.245,97.9471 C353.421,97.9471 360.267,97.0583 366.784,95.2809 C373.302,93.5035 379.687,91.2981 385.941,88.6649 L385.941,68.4218 L384.954,68.4218 C381.728,71.3183 376.314,74.2643 368.71,77.2596 C361.107,80.2549 353.552,81.7526 346.048,81.7526 C340.386,81.7526 335.202,80.9626 330.495,79.3827 C325.788,77.8027 321.723,75.4328 318.3,72.2729 C314.745,69.0472 311.947,64.9162 309.906,59.8802 C307.866,54.8441 306.845,48.9357 306.845,42.1551 L388.114,42.1551 L388.114,32.0829 Z M306.845,27.9356 C307.635,19.2458 310.976,11.9715 316.868,6.11252 C322.76,0.25354 330.676,-2.67595 340.617,-2.67595 C350.491,-2.67595 357.848,-0.00978489 362.687,5.32254 C367.525,10.6549 369.977,18.1925 370.043,27.9356 L306.845,27.9356 Z M497.822,68.0268 L496.834,68.0268 C495.452,69.1459 493.575,70.479 491.205,72.026 C488.836,73.5731 486.301,75.0378 483.602,76.4203 C480.508,78.0002 477.019,79.2839 473.135,80.2714 C469.251,81.2588 465.433,81.7526 461.68,81.7526 C450.884,81.7526 442.507,78.1812 436.549,71.0385 C430.591,63.8959 427.613,53.6756 427.613,40.3777 C427.613,26.6848 430.657,16.2999 436.747,9.22304 C442.836,2.14619 451.147,-1.39224 461.68,-1.39224 C467.408,-1.39224 473.283,-0.207279 479.306,2.16265 C485.33,4.53257 491.173,7.92288 496.834,12.3336 L497.822,12.3336 L497.822,-8.30452 C492.753,-10.8719 487.173,-13.0444 481.084,-14.8218 C474.995,-16.5993 468.79,-17.488 462.47,-17.488 C446.21,-17.488 433.126,-12.3531 423.218,-2.08347 C413.311,8.1862 408.357,22.3399 408.357,40.3777 C408.357,50.0549 409.674,58.5142 412.307,65.7556 C414.94,72.997 418.659,78.9877 423.465,83.7275 C428.205,88.4674 433.899,92.0058 440.548,94.3428 C447.197,96.6798 454.505,97.8483 462.47,97.8483 C468.724,97.8483 474.632,97.0254 480.195,95.3796 C485.758,93.7339 491.633,91.4298 497.822,88.4674 L497.822,68.0268 Z M578.893,77.704 L577.905,77.704 C576.457,78.2964 574.087,79.037 570.795,79.9258 C567.504,80.8145 564.344,81.2588 561.316,81.2588 C556.115,81.2588 552.247,80.6499 549.713,79.432 C547.178,78.2142 545.187,76.2886 543.739,73.6553 C542.159,70.8246 541.237,67.7799 540.974,64.5213 C540.711,61.2626 540.579,56.7367 540.579,50.9436 L540.579,0.681443 L578.893,0.681443 L578.893,-14.9206 L540.579,-14.9206 L540.579,-46.6183 L522.014,-46.6183 L522.014,-14.9206 L509.474,-14.9206 L509.474,0.681443 L522.014,0.681443 L522.014,59.3371 C522.014,72.7008 524.944,82.4109 530.803,88.4674 C536.662,94.5238 545.22,97.5521 556.477,97.5521 C559.703,97.5521 563.373,97.2558 567.487,96.6633 C571.602,96.0709 575.404,95.3138 578.893,94.3922 L578.893,77.704 Z M698.376,38.8965 C698.376,21.0562 694.673,7.11644 687.267,-2.92282 C679.861,-12.9621 669.509,-17.9817 656.211,-17.9817 C649.233,-17.9817 642.667,-16.5828 636.511,-13.785 C630.356,-10.9871 624.81,-7.51454 619.873,-3.36718 L619.873,-14.9206 L601.308,-14.9206 L601.308,136.063 L619.873,136.063 L619.873,89.8498 C624.678,92.4831 629.402,94.4251 634.043,95.6759 C638.684,96.9267 643.868,97.5521 649.595,97.5521 C656.179,97.5521 662.416,96.219 668.308,93.5528 C674.2,90.8867 679.318,87.1178 683.663,82.2463 C688.337,77.1115 691.958,70.8411 694.525,63.435 C697.093,56.029 698.376,47.8495 698.376,38.8965 Z M679.219,39.3902 C679.219,53.0831 676.323,63.4186 670.53,70.3967 C664.737,77.3748 656.672,80.8639 646.337,80.8639 C641.531,80.8639 637.236,80.436 633.45,79.5801 C629.665,78.7243 625.139,77.1115 619.873,74.7416 L619.873,12.2348 C624.81,8.48244 629.978,5.45421 635.376,3.15011 C640.774,0.846021 646.139,-0.306025 651.472,-0.306025 C660.885,-0.306025 667.864,2.98554 672.406,9.56866 C676.948,16.1518 679.219,26.0923 679.219,39.3902 Z M813.021,20.5296 C813.021,13.4198 811.935,7.46206 809.763,2.65638 C807.59,-2.1493 804.43,-6.06626 800.283,-9.09449 C796.07,-12.1886 791.083,-14.3774 785.323,-15.6612 C779.563,-16.9449 772.798,-17.5867 765.03,-17.5867 C758.381,-17.5867 751.634,-16.9942 744.787,-15.8093 C737.941,-14.6243 732.707,-13.5381 729.087,-12.5506 L729.087,6.31001 L730.074,6.31001 C736.46,3.87426 742.648,2.01452 748.638,0.730816 C754.629,-0.552892 760.06,-1.19475 764.932,-1.19475 C768.947,-1.19475 772.798,-0.931422 776.485,-0.404772 C780.172,0.121878 783.331,1.14226 785.965,2.65638 C788.73,4.23633 790.853,6.40876 792.334,9.17367 C793.815,11.9386 794.556,15.4276 794.556,19.6408 L794.556,22.5045 C783.759,23.0311 773.654,23.8211 764.24,24.8744 C754.827,25.9277 746.762,27.9356 740.047,30.898 C733.399,33.8604 728.28,37.9255 724.692,43.0932 C721.105,48.261 719.311,55.0251 719.311,63.3857 C719.311,73.5895 722.767,81.983 729.679,88.5661 C736.591,95.1492 745.018,98.4408 754.958,98.4408 C760.356,98.4408 765.063,97.9306 769.079,96.9102 C773.095,95.8898 776.65,94.6226 779.744,93.1085 C782.377,91.9235 785.092,90.3271 787.89,88.3192 C790.688,86.3114 792.91,84.7479 794.556,83.6288 L794.556,95.3796 L813.021,95.3796 L813.021,20.5296 Z M794.556,68.2243 C789.948,71.7792 784.944,74.8238 779.546,77.3583 C774.148,79.8928 768.19,81.1601 761.673,81.1601 C753.839,81.1601 748.013,79.5637 744.195,76.3709 C740.377,73.1781 738.468,68.4218 738.468,62.102 C738.468,56.5063 740.113,52.1121 743.405,48.9193 C746.696,45.7264 751.008,43.373 756.341,41.8589 C760.817,40.6081 766.89,39.6535 774.559,38.9952 C782.229,38.3369 788.894,37.8432 794.556,37.514 L794.556,68.2243 Z M867.53,-58.2704 L848.965,-58.2704 L848.965,95.3796 L867.53,95.3796 L867.53,-58.2704 Z " fill="#00cfc8" fill-opacity="1.00" />			<path d="M-314.709,-31.0858 L-360.217,14.4216 L-314.709,59.929 L-314.709,-31.0858 Z " fill="#00cfc8" fill-opacity="1.00" />			<path d="M-316.446,-30.6022 L-270.939,14.9052 L-316.446,60.4126 L-316.446,-30.6022 Z " fill="#00cfc8" fill-opacity="1.00" />			<path d="M-333.571,-55.7582 L-424.586,-55.7582 L-424.586,35.2566 L-333.571,-55.7582 Z " fill="#00cfc8" fill-opacity="1.00" />			<path d="M-194.969,90.3537 L-255.244,30.0794 L-315.518,90.3537 L-194.969,90.3537 Z " fill="#00cfc8" fill-opacity="1.00" />			<path d="M-314.438,90.2803 L-374.713,30.0059 L-434.987,90.2803 L-314.438,90.2803 Z " fill="#00cfc8" fill-opacity="1.00" />		</g>	</svg>