<?xml version="1.0" encoding="utf-8" ?>	<!-- Generator: Assembly 2.2 - http://assemblyapp.co -->	<svg version="1.1" xmlns="http://www.w3.org/2000/svg" xmlns:xlink="http://www.w3.org/1999/xlink" width="2048.00" height="1152.00" viewBox="0 0 2048.0 1151.9999914169312">		<g id="document" transform="matrix(1,0,0,1,1024.0,575.9999957084656)">			<g>				<path d="M136.734,210.12 L136.734,211.974 L148.679,211.974 L849.196,211.974 L861.142,211.974 L861.142,189.04 L861.614,188.568 L861.142,188.096 L861.142,188.083 L861.13,188.083 L853.168,180.121 L475.652,-197.395 L467.205,-205.842 L467.205,-205.842 L467.205,-205.842 L455.259,-205.842 L423.264,-205.842 L423.264,-332.086 L423.264,-342.614 L423.264,-342.614 L423.405,-342.614 L423.405,-366.505 L411.46,-366.505 L277.992,-366.505 L266.047,-366.505 L266.047,-342.614 L277.992,-342.614 L399.373,-342.614 L399.373,-332.087 L399.373,-198.619 L399.373,-186.674 L399.377,-186.674 L399.377,-186.674 L399.377,-181.951 L411.323,-181.951 L455.259,-181.951 L457.309,-181.951 L458.758,-180.501 L827.343,188.083 L148.679,188.083 L148.484,188.083 L146.305,185.905 L-225.01,-185.41 L263.193,-185.41 L266.047,-185.41 L266.047,-185.41 L266.047,-185.255 L289.938,-185.255 L289.938,-197.201 L289.938,-330.668 L289.938,-342.614 L266.047,-342.614 L266.047,-330.668 L266.047,-209.301 L263.193,-209.301 L-245.938,-209.301 L-248.901,-209.301 L-248.901,-209.301 L-344.49,-304.89 L-352.928,-313.328 L-361.375,-304.899 L-853.159,185.896 L-861.614,194.334 L-844.738,211.245 L-836.283,202.807 L-344.498,-287.988 L-361.383,-287.997 L129.411,202.798 L136.734,210.12 L136.734,210.12 Z M-524.023,29.5185 L-390.556,29.5184 L-390.556,-51.8747 L-524.023,-51.8747 L-524.023,29.5185 Z M-353.431,29.5185 L-219.964,29.5185 L-219.964,-51.8748 L-353.431,-51.8748 L-353.431,29.5185 Z M-353.431,129.41 L-219.964,129.41 L-219.964,48.0166 L-353.431,48.0166 L-353.431,129.41 Z M-524.023,129.41 L-390.556,129.41 L-390.556,48.0166 L-524.023,48.0166 L-524.023,129.41 Z " fill="#00cfc8" fill-opacity="1.00" />				<path d="M-135.66,-166.432 L189.041,-166.432 L189.041,158.269 L-135.66,-166.432 Z " fill="#00cfc8" fill-opacity="1.00" />				<path d="M496.502,-98.8076 L399.764,-2.0693 L496.502,94.669 L496.502,-98.8076 Z " fill="#00cfc8" fill-opacity="1.00" />				<path d="M492.81,-97.7795 L589.548,-1.0412 L492.81,95.6971 L492.81,-97.7795 Z " fill="#00cfc8" fill-opacity="1.00" />				<path d="M456.406,-151.255 L262.93,-151.255 L262.93,42.2211 L456.406,-151.255 Z " fill="#00cfc8" fill-opacity="1.00" />				<path d="M751.042,159.345 L622.912,31.2155 L494.783,159.345 L751.042,159.345 Z " fill="#00cfc8" fill-opacity="1.00" />				<path d="M497.078,159.189 L368.949,31.0593 L240.819,159.189 L497.078,159.189 Z " fill="#00cfc8" fill-opacity="1.00" />			</g>		</g>	</svg>