<?xml version="1.0" encoding="utf-8" ?>	<!-- Generator: Assembly 2.2 - http://assemblyapp.co -->	<svg version="1.1" xmlns="http://www.w3.org/2000/svg" xmlns:xlink="http://www.w3.org/1999/xlink" width="2048.00" height="1152.00" viewBox="0 0 2048.0 1151.9999914169312">		<g id="document" transform="matrix(1,0,0,1,1024.0,575.9999957084656)">			<path d="M-471.661,-191.154 C-471.661,-225.218 -499.377,-252.932 -533.441,-252.932 C-549.048,-252.932 -563.95,-247.097 -575.398,-236.501 L-582.213,-243.865 C-568.968,-256.127 -551.747,-262.894 -533.694,-262.957 C-536.263,-297.501 -565.037,-324.747 -600.238,-324.747 C-637.129,-324.747 -667.035,-294.841 -667.035,-257.95 C-693.768,-257.95 -716.822,-242.241 -727.497,-219.555 C-733.39,-223.942 -740.693,-226.539 -748.604,-226.539 C-768.147,-226.539 -783.99,-210.696 -783.99,-191.153 L-466.644,-191.153 L-466.644,-191.154 L-471.661,-191.154 L-471.661,-191.154 Z " fill="#c5e0dc" fill-opacity="1.00" />			<path d="M489.802,-216.111 C489.802,-250.175 462.086,-277.889 428.022,-277.889 C412.415,-277.889 397.513,-272.054 386.065,-261.458 L379.249,-268.823 C392.495,-281.084 409.716,-287.851 427.769,-287.914 C425.2,-322.458 396.426,-349.705 361.225,-349.705 C324.334,-349.705 294.428,-319.799 294.428,-282.908 C267.695,-282.908 244.641,-267.198 233.966,-244.512 C228.073,-248.899 220.77,-251.496 212.859,-251.496 C193.316,-251.496 177.473,-235.653 177.473,-216.11 L494.819,-216.11 L494.819,-216.111 L489.802,-216.111 L489.802,-216.111 Z " fill="#c5e0dc" fill-opacity="1.00" />			<path d="M-482.627,-13.6533 L-166.868,-13.6533 L-224.625,-43.8012 L-250.33,-78.3919 L-313.482,-102.828 L-318.242,-112.348 L-340.773,-128.533 L-378.855,-89.1817 L-395.04,-82.2 L-428.044,-56.495 L-438.199,-59.9858 C-438.199,-59.9858 -479.771,-16.5094 -482.627,-13.6533 Z " fill="#e6beff" fill-opacity="1.00" />			<path d="M-515.917,-105.605 L-559.576,-188.558 L-574.311,-195.107 L-604.327,-250.226 L-627.248,-250.226 L-685.642,-201.11 L-705.834,-171.094 L-724.389,-176.006 L-781.692,-125.798 L-865.736,-125.798 L-896.297,-84.3216 L-984.707,-51.5772 L-1024,-6.82667 L-482.627,-6.82667 L-515.917,-105.605 Z M-583.043,-152.539 L-611.421,-164.545 L-668.178,-157.996 L-676.91,-174.369 L-690.008,-183.1 L-678.002,-197.29 L-627.794,-236.583 L-608.693,-236.583 L-578.677,-183.646 L-565.034,-177.643 L-556.847,-160.725 L-583.043,-152.539 Z " fill="#e6beff" fill-opacity="1.00" />			<path d="M-116.466,-112.917 L-72.8064,-195.869 L-58.0715,-202.418 L-28.0558,-257.538 L-5.1348,-257.538 L53.2593,-208.421 L73.4516,-178.405 L92.0067,-183.317 L149.309,-133.109 L233.353,-133.109 L263.914,-91.633 L352.324,-58.8887 L391.617,-14.1381 L-149.756,-14.1381 L-116.466,-112.917 Z M-49.3397,-159.85 L-20.9612,-171.857 L35.7956,-165.308 L44.5274,-181.68 L57.6252,-190.412 L45.6189,-204.601 L-4.58907,-243.894 L-23.6899,-243.894 L-53.7056,-190.957 L-67.349,-184.954 L-75.5351,-168.036 L-49.3397,-159.85 Z " fill="#e6beff" fill-opacity="1.00" />			<path d="M76.3166,-191.154 C76.3166,-225.218 48.601,-252.932 14.5371,-252.932 C-1.07022,-252.932 -15.972,-247.097 -27.4202,-236.501 L-34.2355,-243.865 C-20.9903,-256.127 -3.76894,-262.894 14.284,-262.957 C11.7151,-297.501 -17.0591,-324.747 -52.2599,-324.747 C-89.151,-324.747 -119.057,-294.841 -119.057,-257.95 C-145.79,-257.95 -168.844,-242.241 -179.519,-219.555 C-185.412,-223.942 -192.715,-226.539 -200.626,-226.539 C-220.169,-226.539 -236.012,-210.696 -236.012,-191.153 L81.3342,-191.153 L81.3342,-191.154 L76.3166,-191.154 L76.3166,-191.154 Z " fill="#c5e0dc" fill-opacity="1.00" />			<path d="M956.375,-112.917 L912.716,-195.869 L897.981,-202.418 L867.965,-257.538 L845.044,-257.538 L786.65,-208.421 L766.457,-178.405 L747.902,-183.317 L690.6,-133.109 L606.556,-133.109 L575.995,-91.633 L487.585,-58.8887 L448.292,-14.1381 L989.665,-14.1381 L956.375,-112.917 Z M889.249,-159.85 L860.87,-171.857 L804.113,-165.308 L795.382,-181.68 L782.284,-190.412 L794.29,-204.601 L844.498,-243.894 L863.599,-243.894 L893.615,-190.957 L907.258,-184.954 L915.444,-168.036 L889.249,-159.85 Z " fill="#e6beff" fill-opacity="1.00" />			<path d="M-1060.25,-6.82667 L1055.7,-6.82667 " fill="none" stroke-width="13.65" stroke="#a9a9a9" stroke-linecap="square" stroke-linejoin="miter" />			<g>				<path d="M-843.28,-43.4382 L-869.407,-72.9194 L-852.901,-72.9194 L-874.968,-97.8107 L-859.962,-97.8107 L-887.06,-128.351 L-914.335,-97.8107 L-899.241,-97.8107 L-921.396,-72.9194 L-904.714,-72.9194 L-930.929,-43.4382 L-843.28,-43.4382 Z " fill="none" stroke-width="8.39" stroke="#a9a9a9" stroke-linecap="square" stroke-linejoin="miter" />				<path d="M-893.449,-11.7676 L-880.781,-11.7676 L-880.781,-75.1088 L-893.449,-75.1088 L-893.449,-11.7676 Z " fill="#a9a9a9" fill-opacity="1.00" />			</g>			<g>				<path d="M-369.647,-38.4973 L-395.774,-67.9785 L-379.268,-67.9785 L-401.335,-92.8698 L-386.329,-92.8698 L-413.427,-123.41 L-440.702,-92.8698 L-425.608,-92.8698 L-447.763,-67.9785 L-431.081,-67.9785 L-457.296,-38.4973 L-369.647,-38.4973 Z " fill="none" stroke-width="8.39" stroke="#a9a9a9" stroke-linecap="square" stroke-linejoin="miter" />				<path d="M-419.816,-6.82667 L-407.148,-6.82667 L-407.148,-70.1679 L-419.816,-70.1679 L-419.816,-6.82667 Z " fill="#a9a9a9" fill-opacity="1.00" />			</g>			<g>				<path d="M55.0949,-45.8087 L28.9678,-75.2899 L45.4738,-75.2899 L23.407,-100.181 L38.4124,-100.181 L11.3144,-130.722 L-15.9601,-100.181 L-0.86646,-100.181 L-23.0215,-75.2899 L-6.33902,-75.2899 L-32.5544,-45.8087 L55.0949,-45.8087 Z " fill="none" stroke-width="8.39" stroke="#a9a9a9" stroke-linecap="square" stroke-linejoin="miter" />				<path d="M4.9257,-14.1381 L17.5939,-14.1381 L17.5939,-77.4793 L4.9257,-77.4793 L4.9257,-14.1381 Z " fill="#a9a9a9" fill-opacity="1.00" />			</g>			<g>				<path d="M531.592,-38.4973 L505.465,-67.9785 L521.97,-67.9785 L499.904,-92.8698 L514.909,-92.8698 L487.811,-123.41 L460.537,-92.8698 L475.63,-92.8698 L453.475,-67.9785 L470.158,-67.9785 L443.942,-38.4973 L531.592,-38.4973 Z " fill="none" stroke-width="8.39" stroke="#a9a9a9" stroke-linecap="square" stroke-linejoin="miter" />				<path d="M481.422,-6.82667 L494.091,-6.82667 L494.091,-70.1679 L481.422,-70.1679 L481.422,-6.82667 Z " fill="#a9a9a9" fill-opacity="1.00" />			</g>			<g>				<path d="M980.338,-45.8087 L954.211,-75.2899 L970.717,-75.2899 L948.65,-100.181 L963.655,-100.181 L936.557,-130.722 L909.283,-100.181 L924.377,-100.181 L902.222,-75.2899 L918.904,-75.2899 L892.689,-45.8087 L980.338,-45.8087 Z " fill="none" stroke-width="8.39" stroke="#a9a9a9" stroke-linecap="square" stroke-linejoin="miter" />				<path d="M930.169,-14.1381 L942.837,-14.1381 L942.837,-77.4793 L930.169,-77.4793 L930.169,-14.1381 Z " fill="#a9a9a9" fill-opacity="1.00" />			</g>			<path d="M-754.971,-11.9603 L-563.777,-11.9603 L-563.777,-128.557 L-754.971,-128.557 L-754.971,-11.9603 Z M-567.329,-143.444 L-590.595,-201.606 L-728.153,-201.606 L-751.419,-143.444 L-567.329,-143.444 Z " fill="#a9a9a9" fill-opacity="1.00" />			<path d="M-236.012,-14.1381 L-149.756,-14.1381 L-149.756,-216.11 L-236.012,-216.11 L-236.012,-14.1381 Z M-184.674,-185.712 L-163.594,-185.712 L-163.594,-172.338 L-184.674,-172.338 L-184.674,-185.712 Z M-184.674,-157.512 L-163.594,-157.512 L-163.594,-144.138 L-184.674,-144.138 L-184.674,-157.512 Z M-184.674,-129.311 L-163.594,-129.311 L-163.594,-115.937 L-184.674,-115.937 L-184.674,-129.311 Z M-184.674,-101.111 L-163.594,-101.111 L-163.594,-87.7369 L-184.674,-87.7369 L-184.674,-101.111 Z M-184.674,-72.9101 L-163.594,-72.9101 L-163.594,-59.5364 L-184.674,-59.5364 L-184.674,-72.9101 Z M-222.173,-185.712 L-201.094,-185.712 L-201.094,-172.338 L-222.173,-172.338 L-222.173,-185.712 Z M-222.173,-157.512 L-201.094,-157.512 L-201.094,-144.138 L-222.173,-144.138 L-222.173,-157.512 Z M-222.173,-129.311 L-201.094,-129.311 L-201.094,-115.937 L-222.173,-115.937 L-222.173,-129.311 Z M-222.173,-101.111 L-201.094,-101.111 L-201.094,-87.7369 L-222.173,-87.7369 L-222.173,-101.111 Z M-222.173,-72.9101 L-201.094,-72.9101 L-201.094,-59.5364 L-222.173,-59.5364 L-222.173,-72.9101 Z " fill="#a9a9a9" fill-opacity="1.00" />			<path d="M648.793,-14.1381 L736.442,-14.1381 L736.442,-152.793 L648.793,-216.11 L648.793,-14.1381 Z M700.151,-132.536 L713.74,-132.536 L713.74,-111.116 L700.151,-111.116 L700.151,-132.536 Z M700.151,-93.7779 L713.74,-93.7779 L713.74,-72.3582 L700.151,-72.3582 L700.151,-93.7779 Z M700.151,-55.0198 L713.74,-55.0198 L713.74,-33.6001 L700.151,-33.6001 L700.151,-55.0198 Z M671.495,-171.294 L685.084,-171.294 L685.084,-149.874 L671.495,-149.874 L671.495,-171.294 Z M671.495,-132.536 L685.084,-132.536 L685.084,-111.116 L671.495,-111.116 L671.495,-132.536 Z M671.495,-93.7779 L685.084,-93.7779 L685.084,-72.3582 L671.495,-72.3582 L671.495,-93.7779 Z M671.495,-55.0198 L685.084,-55.0198 L685.084,-33.6001 L671.495,-33.6001 L671.495,-55.0198 Z " fill="#a9a9a9" fill-opacity="1.00" />			<path d="M800.085,-176.443 C800.085,-210.507 772.369,-238.221 738.305,-238.221 C722.698,-238.221 707.796,-232.386 696.348,-221.79 L689.533,-229.154 C702.778,-241.416 719.999,-248.183 738.052,-248.246 C735.483,-282.79 706.709,-310.036 671.508,-310.036 C634.617,-310.036 604.711,-280.13 604.711,-243.239 C577.978,-243.239 554.924,-227.53 544.249,-204.844 C538.356,-209.231 531.053,-211.828 523.142,-211.828 C503.599,-211.828 487.756,-195.985 487.756,-176.442 L805.102,-176.442 L805.102,-176.443 L800.085,-176.443 L800.085,-176.443 Z " fill="#c5e0dc" fill-opacity="1.00" />			<path d="M162.52,-14.1381 L326.741,-14.1381 L326.741,-114.291 L162.52,-114.291 L162.52,-14.1381 Z M189.601,-83.6364 L229.734,-83.6364 L229.734,-58.1744 L189.601,-58.1744 L189.601,-83.6364 Z M244.628,-216.11 L169.846,-127.078 L319.415,-127.078 L244.628,-216.11 Z " fill="#a9a9a9" fill-opacity="1.00" />			<path d="M-853.822,-392.252 L-853.822,-418.083 L-857.89,-418.083 L-857.89,-392.252 L-857.89,-367.03 L-853.822,-367.03 L-853.822,-392.252 Z M-825.091,-385.788 L-828.849,-387.345 L-838.659,-363.67 L-834.901,-362.113 L-825.091,-385.788 Z M-787.126,-347.876 L-810.804,-338.068 L-809.247,-334.31 L-785.569,-344.118 L-787.126,-347.876 Z M-810.919,-295.938 L-809.362,-299.696 L-785.687,-289.886 L-787.244,-286.128 L-810.919,-295.938 Z M-838.74,-270.023 L-828.932,-246.346 L-825.174,-247.903 L-834.982,-271.58 L-838.74,-270.023 Z M-886.647,-248.278 L-882.889,-246.72 L-873.079,-270.395 L-876.837,-271.953 L-886.647,-248.278 Z M-910.569,-265.129 L-928.875,-247.23 L-925.824,-244.179 L-889.619,-280.587 L-892.67,-283.435 L-910.569,-265.129 Z M-926.547,-290.277 L-924.99,-286.519 L-901.315,-296.329 L-902.872,-300.087 L-926.547,-290.277 Z M-900.966,-338.261 L-902.523,-334.503 L-926.198,-344.313 L-924.641,-348.071 L-900.966,-338.261 Z M-873.203,-363.713 L-883.011,-387.391 L-886.769,-385.834 L-876.961,-362.156 L-873.203,-363.713 Z M-783.04,-386.76 L-786.091,-389.811 L-803.99,-371.709 L-822.092,-353.606 L-819.244,-350.759 L-783.04,-386.76 Z M-780.802,-319.029 L-806.024,-319.029 L-806.024,-314.961 L-780.802,-314.961 L-754.971,-314.961 L-754.971,-319.029 L-780.802,-319.029 Z M-819.244,-283.435 L-822.092,-280.587 L-803.99,-262.281 L-786.091,-244.179 L-783.04,-247.23 L-801.346,-265.129 L-819.244,-283.435 Z M-857.89,-241.738 L-857.89,-216.11 L-853.822,-216.11 L-853.822,-241.738 L-853.822,-267.163 L-857.89,-267.163 L-857.89,-241.738 Z M-905.688,-319.029 L-931.316,-319.029 L-956.944,-319.029 L-956.944,-314.961 L-931.316,-314.961 L-905.688,-314.961 L-905.688,-319.029 Z M-892.67,-350.759 L-889.619,-353.606 L-907.722,-371.709 L-925.824,-389.811 L-928.875,-386.76 L-910.569,-368.861 L-892.67,-350.759 Z M-821.482,-316.995 C-821.482,-335.979 -836.872,-351.369 -855.856,-351.369 C-874.84,-351.369 -890.23,-335.979 -890.23,-316.995 C-890.23,-298.011 -874.84,-282.621 -855.856,-282.621 C-836.872,-282.621 -821.482,-298.011 -821.482,-316.995 Z " fill="#fbdd8f" fill-opacity="1.00" />			<path d="M1018.98,-223.423 C1018.98,-257.487 991.267,-285.201 957.203,-285.201 C941.596,-285.201 926.694,-279.365 915.246,-268.77 L908.43,-276.134 C921.675,-288.395 938.897,-295.162 956.95,-295.226 C954.381,-329.77 925.607,-357.016 890.406,-357.016 C853.515,-357.016 823.609,-327.11 823.609,-290.219 C796.876,-290.219 773.822,-274.509 763.146,-251.824 C757.254,-256.21 749.951,-258.807 742.04,-258.807 C722.497,-258.807 706.654,-242.965 706.654,-223.422 L1024,-223.422 L1024,-223.423 L1018.98,-223.423 L1018.98,-223.423 Z " fill="#c5e0dc" fill-opacity="1.00" />		</g>	</svg>