<?xml version="1.0" encoding="utf-8" ?>	<!-- Generator: Assembly 2.2 - http://assemblyapp.co -->	<svg version="1.1" xmlns="http://www.w3.org/2000/svg" xmlns:xlink="http://www.w3.org/1999/xlink" width="2048.00" height="1152.00" viewBox="0 0 2048.0 1151.9999914169312">		<g id="document" transform="matrix(1,0,0,1,1024.0,575.9999957084656)">			<path d="M102.596,81.6951 L102.596,82.938 L110.605,82.938 L580.253,82.938 L588.262,82.938 L588.262,67.5623 L588.578,67.2456 L588.262,66.9289 L588.262,66.9208 L588.253,66.9208 L582.915,61.5827 L329.817,-191.515 L324.154,-197.178 L324.154,-197.178 L324.154,-197.178 L316.146,-197.178 L294.695,-197.178 L294.695,-281.817 L294.695,-288.875 L294.695,-288.875 L294.79,-288.875 L294.789,-304.892 L286.781,-304.892 L197.3,-304.892 L189.292,-304.892 L189.292,-288.875 L197.3,-288.875 L278.678,-288.875 L278.678,-281.817 L278.678,-192.336 L278.678,-184.328 L278.681,-184.328 L278.681,-184.328 L278.681,-181.161 L286.689,-181.161 L316.146,-181.161 L317.52,-181.161 L318.491,-180.19 L565.602,66.9208 L110.605,66.9208 L110.474,66.9208 L109.013,65.4601 L-139.928,-183.481 L187.378,-183.481 L189.292,-183.481 L189.292,-183.481 L189.292,-183.377 L205.309,-183.377 L205.309,-191.385 L205.309,-280.866 L205.309,-288.875 L189.292,-288.875 L189.292,-280.866 L189.292,-199.498 L187.378,-199.498 L-153.958,-199.498 L-155.945,-199.498 L-155.945,-199.498 L-220.03,-263.584 L-225.688,-269.241 L-231.351,-263.589 L-561.058,65.4544 L-566.726,71.1116 L-555.412,82.4488 L-549.743,76.7917 L-220.036,-252.252 L-231.356,-252.258 L97.6873,76.786 L102.596,81.6951 L102.596,81.6951 Z M-340.395,-39.3859 L-250.914,-39.386 L-250.914,-93.9544 L-340.395,-93.9544 L-340.395,-39.3859 Z M-226.025,-39.3859 L-136.545,-39.3859 L-136.545,-93.9544 L-226.025,-93.9544 L-226.025,-39.3859 Z M-226.025,27.5842 L-136.545,27.5842 L-136.545,-26.9843 L-226.025,-26.9842 L-226.025,27.5842 Z M-340.395,27.5842 L-250.915,27.5842 L-250.914,-26.9843 L-340.395,-26.9843 L-340.395,27.5842 Z " fill="#00cfc8" fill-opacity="1.00" />			<path d="M544.033,59.7432 L307.261,59.7432 L307.261,-177.029 L544.033,59.7432 Z " fill="#00cfc8" fill-opacity="1.00" />			<path d="M113.538,59.7432 L9.4968,-44.298 L9.4968,-148.339 L217.579,59.7432 L113.538,59.7432 Z " fill="#00cfc8" fill-opacity="1.00" />			<path d="M-117.286,-174.655 L1.13687e-13,-174.655 L1.13687e-13,-57.369 L-117.286,-174.655 Z " fill="#00cfc8" fill-opacity="1.00" />			<path d="M6.67091,-174.096 L172.538,-174.096 L89.6044,-91.1626 L6.67091,-174.096 Z " fill="#00cfc8" fill-opacity="1.00" />			<path d="M180.343,0.185502 L180.343,-58.4573 L297.629,58.8283 L238.986,58.8283 L180.343,0.185502 Z " fill="#00cfc8" fill-opacity="1.00" />			<path d="M289.823,26.2564 L231.181,-32.3864 L289.823,-32.3864 L289.823,26.2564 Z " fill="#00cfc8" fill-opacity="1.00" />			<path d="M217.579,-110.444 L217.579,-281.697 L260.393,-281.697 L260.393,-110.444 L217.579,-110.444 Z " fill="#00cfc8" fill-opacity="1.00" />			<path d="M168.415,-156.134 L96.6341,-84.3531 L168.415,-12.5723 L168.415,-156.134 Z " fill="#00cfc8" fill-opacity="1.00" />		</g>	</svg>