<?xml version="1.0" encoding="utf-8" ?>	
<!-- Generator: Assembly 2.2 - http://assemblyapp.co -->
<svg xmlns="http://www.w3.org/2000/svg" width="2048" height="1152" viewBox="0 0 2048 1151.99999142">
  <g fill="#21c87a">
    <path d="M1088.322 674.8443957v.872h5.6193l329.5357.0001 5.619-.0001v-10.7885l.223-.2222-.223-.2222v-.0058h-.005l-3.746-3.7455-177.59-177.5902-3.974-3.9735h-20.67v-64.3395h.066v-11.239h-74.024v11.239h62.719v73.3564l.002-.0001v2.2219h27.252l.682.6818 173.389 173.3887h-319.3477l-1.0249-1.0249-174.6734-174.6731h231.002v.0729h11.239v-74.0236h-11.239v62.712h-242.24l-44.967-44.967-3.97-3.969-3.973 3.965-231.344 230.8788-3.978 3.9695 7.939 7.955 3.978-3.9695 231.344-230.8788-7.943-.004 230.8784 230.8788 3.4446 3.4446zm-310.832-84.9584h62.786v-38.2888H777.49v38.2888zm80.25 0h62.785v-38.2888H857.74v38.2888zm0 46.9907h62.785v-38.2889l-62.785.0001v38.2888zm-80.25 0h62.786v-38.2889H777.49v38.2889z"/>
    <path d="M960.1833 500.8072957h152.7451v152.7452l-152.7451-152.7452z"/>
  </g>
</svg>