<?xml version="1.0" encoding="utf-8" ?>	<!-- Generator: Assembly 2.2 - http://assemblyapp.co -->	<svg version="1.1" xmlns="http://www.w3.org/2000/svg" xmlns:xlink="http://www.w3.org/1999/xlink" width="2048.00" height="1152.00" viewBox="0 0 2048.0 1151.9999914169312">		<g id="document" transform="matrix(1,0,0,1,1024.0,575.9999957084656)">			<g>				<path d="M64.322,98.8444 L64.322,99.7164 L69.9413,99.7164 L399.477,99.7165 L405.096,99.7164 L405.096,88.9279 L405.319,88.7057 L405.096,88.4835 L405.096,88.4777 L405.091,88.4777 L401.345,84.7322 L223.755,-92.858 L219.781,-96.8315 L219.781,-96.8315 L219.781,-96.8315 L214.162,-96.8315 L199.111,-96.8315 L199.111,-156.219 L199.111,-161.171 L199.111,-161.171 L199.177,-161.171 L199.177,-172.41 L193.558,-172.41 L130.772,-172.41 L125.153,-172.41 L125.153,-161.171 L130.772,-161.171 L187.872,-161.171 L187.872,-156.219 L187.872,-93.434 L187.872,-87.8146 L187.874,-87.8147 L187.874,-87.8147 L187.874,-85.5928 L193.494,-85.5928 L214.162,-85.5928 L215.126,-85.5928 L215.808,-84.911 L389.197,88.4777 L69.9413,88.4777 L69.8493,88.4777 L68.8244,87.4528 L-105.849,-87.2203 L123.811,-87.2203 L125.153,-87.2203 L125.153,-87.2203 L125.153,-87.1474 L136.392,-87.1474 L136.392,-92.7668 L136.392,-155.552 L136.392,-161.171 L125.153,-161.171 L125.153,-155.552 L125.153,-98.459 L123.811,-98.459 L-115.694,-98.459 L-117.087,-98.459 L-117.087,-98.459 L-162.054,-143.426 L-166.024,-147.395 L-169.997,-143.43 L-401.341,87.4488 L-405.319,91.4183 L-397.38,99.3733 L-393.402,95.4038 L-162.058,-135.475 L-170.001,-135.479 L60.8774,95.3998 L64.322,98.8444 L64.322,98.8444 Z M-246.51,13.886 L-183.724,13.886 L-183.724,-24.4028 L-246.51,-24.4028 L-246.51,13.886 Z M-166.26,13.886 L-103.475,13.886 L-103.475,-24.4028 L-166.26,-24.4028 L-166.26,13.886 Z M-166.26,60.8767 L-103.475,60.8767 L-103.475,22.5878 L-166.26,22.5879 L-166.26,60.8767 Z M-246.51,60.8767 L-183.724,60.8767 L-183.724,22.5878 L-246.51,22.5878 L-246.51,60.8767 Z " fill="#00cfc8" fill-opacity="1.00" />				<path d="M-63.8167,-75.1927 L88.9284,-75.1927 L88.9284,77.5525 L-63.8167,-75.1927 Z " fill="#00cfc8" fill-opacity="1.00" />			</g>		</g>	</svg>