<?xml version="1.0" encoding="utf-8"?>
<svg xmlns="http://www.w3.org/2000/svg" width="2048" height="1152" viewBox="0 0 2048 1151.99999142" style="enable-background:new 0 0 301.3 82.4;" xml:space="preserve">
  <g fill="#21c87a">
    <path d="M540.049 690.2389957v.872H880.824v-10.788l.222-.222-.222-.223v-.005h-.006l-3.746-3.746-177.59-177.59-3.973-3.9735h-20.671v-64.3395h.067v-11.239H600.88v11.239h62.72v73.3564h.001v2.2218h27.252l.682.6818 173.389 173.389H545.577l-1.025-1.025-174.673-174.6733H600.88v.0729h11.239v-74.0236H600.88v62.712H358.64l-44.967-44.967-3.969-3.969-3.974 3.965-231.344 230.879-3.977 3.969 7.939 7.955 3.977-3.969 231.344-230.879-7.943-.004 230.879 230.879 3.444 3.444zm-310.831-84.958h62.785v-38.28877h-62.785v38.28877zm80.249 0h62.785v-38.28878h-62.785v38.28878zm0 46.9907h62.785v-38.2888h-62.785v38.2888zm-80.249 0h62.785v-38.2888h-62.785v38.2888z"/>
    <path d="M411.911 516.2023957h152.745v152.7451l-152.745-152.7451zM979.899 593.4683957l65.6666-69.1228h-23.69921l-71.39399 76.7263v-76.7263h-19.5518v147.034h19.5518v-49.8671l14.6146-15.602 58.161846 65.4691h25.377954l-68.7278-77.9112zm183.175 22.8105c0-17.9719-4.608-32.17499-13.824-42.60924-9.217-10.43426-21.56-15.65136-37.0303-15.65136-15.602 0-27.9947 5.2171-37.1781 15.65136-9.1835 10.43425-13.7752 24.63734-13.7752 42.60924s4.5917 32.1586 13.7752 42.5599c9.1834 10.4013 21.5761 15.602 37.1781 15.602 15.4703 0 27.8133-5.2007 37.0303-15.602 9.216-10.4013 13.824-24.588 13.824-42.5599zm-19.157 0c0 13.9562-2.814 24.4728-8.442 31.5496-5.629 7.0769-13.3806 10.6153-23.2553 10.6153-10.0063 0-17.8073-3.5713-23.403-10.714-5.5956-7.1427-8.3934-17.6263-8.3934-31.4509 0-14.2854 2.7813-24.9006 8.3441-31.84583 5.5627-6.94519 13.3802-10.41779 23.4523-10.41779 9.9405 0 17.7083 3.4726 23.3043 10.41779 5.596 6.94523 8.393 17.56043 8.393 31.84583zm140.122-16.4907c0-13.4954-3.127-23.8309005-9.381-31.0065-6.254-7.1756-15.338-10.7634-27.254-10.7634-6.517 0-12.87 1.3495-19.058 4.0486-6.188 2.6991-12.179 6.45147-17.972 11.25715v-12.24465h-18.564v110.3002h18.564v-82.3548c5.069-3.88405 10.368-7.07686 15.898-9.57845 5.53-2.501582 10.83-3.752375 15.899-3.752375 4.937 0 8.953.67477 12.047 2.024305 3.094 1.34954 5.464 3.40677 7.109 6.17168 1.58 2.50154 2.667 5.97414 3.259 10.41774.593 4.4437.889 9.2.889 14.269v62.8029h18.564v-71.5914zm128.075 8.2947c0-15.997-4.032-28.34031-12.097-37.03003-8.064-8.68967-19.535-13.03457-34.413-13.03457-16.063 0-29.015 5.2994-38.857 15.89823-9.842 10.59883-14.762 24.91707-14.762 42.95487 0 18.2352 5.134 32.3067 15.404 42.2143 10.27 9.9076 24.555 14.8614 42.856 14.8614 7.176 0 14.022-.8888 20.539-2.6662 6.518-1.7774 12.903-3.9828 19.157-6.616v-20.2431h-.987c-3.226 2.8965-8.64 5.8425-16.244 8.8378-7.603 2.9953-15.158 4.493-22.662 4.493-5.662 0-10.846-.79-15.553-2.3699-4.707-1.58-8.772-3.9499-12.195-7.1098-3.555-3.2257-6.353-7.3567-8.394-12.3927-2.04-5.0361-3.061-10.9445-3.061-17.7251h81.269v-10.0722zm-81.269-4.1473c.79-8.6898 4.131-15.9641 10.023-21.82308 5.892-5.85898 13.808-8.78847 23.749-8.78847 9.874 0 17.231 2.66616512 22.07 7.99849 4.838 5.33236 7.29 12.86996 7.356 22.61306h-63.198zm190.977 40.0912h-.988c-1.382 1.1191-3.259 2.4522-5.629 3.9992-2.369 1.5471-4.904 3.0118-7.603 4.3943-3.094 1.5799-6.583 2.8636-10.467 3.8511-3.884.9874-7.702 1.4812-11.455 1.4812-10.796 0-19.173-3.5714-25.131-10.7141-5.958-7.1426-8.936-17.3629-8.936-30.6608 0-13.6929 3.044-24.0778 9.134-31.15466 6.089-7.07685 14.4-10.61528 24.933-10.61528 5.728 0 11.603 1.184961 17.626 3.55489 6.024 2.36992 11.867 5.76023 17.528 10.17095h.988v-20.63812c-5.069-2.56738-10.649-4.73988-16.738-6.51728-6.089-1.7775-12.294-2.6662-18.614-2.6662-16.26 0-29.344 5.1349-39.252 15.40453-9.907 10.26967-14.861 24.42337-14.861 42.46117 0 9.6772 1.317 18.1365 3.95 25.3779 2.633 7.2414 6.352 13.2321 11.158 17.9719 4.74 4.7399 10.434 8.2783 17.083 10.6153 6.649 2.337 13.957 3.5055 21.922 3.5055 6.254 0 12.162-.8229 17.725-2.4687 5.563-1.6457 11.438-3.9498 17.627-6.9122v-20.4406zm81.071 9.6772h-.988c-1.448.5924-3.818 1.333-7.11 2.2218-3.291.8887-6.451 1.333-9.479 1.333-5.201 0-9.069-.6089-11.603-1.8268-2.535-1.2178-4.526-3.1434-5.974-5.7767-1.58-2.8307-2.502-5.8754-2.765-9.134-.263-3.2587-.395-7.7846-.395-13.5777v-50.262157h38.314v-15.602043h-38.314v-31.6977h-18.565v31.6977h-12.54v15.602043h12.54v58.655657c0 13.3637 2.93 23.0738 8.789 29.1303 5.859 6.0564 14.417 9.0847 25.674 9.0847 3.226 0 6.896-.2963 11.01-.8888 4.115-.5924 7.917-1.3495 11.406-2.2711v-16.6882zm119.483-38.8075c0-17.8403-3.703-31.78006-11.109-41.81932-7.406-10.03928-17.758-15.05888-31.056-15.05888-6.978 0-13.544 1.3989-19.7 4.1967-6.155 2.7979-11.701 6.27046-16.638 10.41782v-11.55342h-18.565v150.9836h18.565v-46.2132c4.805 2.6333 9.529 4.5753 14.17 5.8261s9.825 1.8762 15.552 1.8762c6.584 0 12.821-1.3331 18.713-3.9993 5.892-2.6661 11.01-6.435 15.355-11.3065 4.674-5.1348 8.295-11.4052 10.862-18.8113 2.568-7.406 3.851-15.5855 3.851-24.5385zm-19.157.4937c0 13.6929-2.896 24.0284-8.689 31.0065-5.793 6.9781-13.858 10.4672-24.193 10.4672-4.806 0-9.101-.4279-12.887-1.2838-3.785-.8558-8.311-2.4686-13.577-4.8385v-62.5068c4.937-3.75236 10.105-6.78059 15.503-9.08469 5.398-2.304089 10.763-3.456135 16.096-3.456135 9.413 0 16.392 3.291565 20.934 9.874685 4.542 6.58314 6.813 16.52364 6.813 29.82154zm133.802-18.8606c0-7.1098-1.086-13.06754-3.258-17.87322-2.173-4.80568-5.333-8.72264-9.48-11.75087-4.213-3.09411-9.2-5.28291-14.96-6.56671-5.76-1.2837-12.525-1.9255-20.293-1.9255-6.649 0-13.396.5925-20.243 1.7774-6.846 1.185-12.08 2.2712-15.7 3.2587v18.86061h.987c6.386-2.43575 12.574-4.29549 18.564-5.579194 5.991-1.283708 11.422-1.925566 16.294-1.925566 4.015 0 7.866.263328 11.553.789978 3.687.52665 6.846 1.547032 9.48 3.061152 2.765 1.57995 4.888 3.75238 6.369 6.51729 1.481 2.76493 2.222 6.25393 2.222 10.46713v2.8637c-10.797.5266-20.902 1.3166-30.316 2.3699-9.413 1.0533-17.478 3.0612-24.193 6.0236-6.648 2.9624-11.767 7.0275-15.355 12.1952-3.587 5.1678-5.381 11.9319-5.381 20.2925 0 10.2038 3.456 18.5973 10.368 25.1804 6.912 6.5831 15.339 9.8747 25.279 9.8747 5.398 0 10.105-.5102 14.121-1.5306s7.571-2.2876 10.665-3.8017c2.633-1.185 5.348-2.7814 8.146-4.7893 2.798-2.0078 5.02-3.5713 6.666-4.6904v11.7508h18.465v-74.85zm-18.465 47.6947c-4.608 3.5549-9.612 6.5995-15.01 9.134-5.398 2.5345-11.356 3.8018-17.873 3.8018-7.834 0-13.66-1.5964-17.478-4.7892-3.818-3.1928-5.727-7.9491-5.727-14.2689 0-5.5957 1.645-9.9899 4.937-13.1827 3.291-3.1929 7.603-5.5463 12.936-7.0604 4.476-1.2508 10.549-2.2054 18.218-2.8637 7.67-.6583 14.335-1.152 19.997-1.4812v30.7103zm72.974-126.4947h-18.565v153.65h18.565v-153.65z"/>
  </g>
</svg>