 <svg version="1.0" xmlns="http://www.w3.org/2000/svg" width="700.000000pt" height="700.000000pt" viewBox="0 0 700.000000 700.000000" preserveAspectRatio="xMidYMid meet">
<metadata>
Created by potrace 1.12, written by Peter Selinger 2001-2015
</metadata>
<g transform="translate(0.000000,700.000000) scale(0.100000,-0.100000)" fill="#000000" stroke="none">
<path d="M3265 6994 c-306 -32 -524 -70 -685 -119 -25 -7 -79 -23 -120 -35
-112 -33 -331 -117 -450 -173 -280 -133 -576 -327 -810 -532 -743 -652 -1168
-1554 -1197 -2540 -18 -611 126 -1215 420 -1759 150 -278 334 -530 552 -755
315 -324 617 -543 1020 -737 349 -168 656 -259 1070 -316 213 -30 661 -32 855
-5 583 82 1061 262 1540 580 411 274 803 689 1053 1117 475 814 608 1768 372
2665 -222 844 -731 1550 -1470 2042 -244 162 -581 325 -825 398 -435 130 -647
165 -1035 170 -137 2 -268 1 -290 -1z m-525 -2199 c0 -527 4 -945 9 -945 4 0
42 46 82 101 104 142 410 551 521 695 229 298 394 510 611 789 l233 300 527 3
c418 2 527 0 527 -10 0 -7 -152 -202 -336 -433 -185 -231 -512 -640 -727 -910
-215 -269 -396 -497 -404 -506 -11 -14 9 -48 148 -260 89 -134 190 -287 224
-339 34 -52 132 -201 217 -330 85 -129 184 -280 220 -335 36 -55 210 -320 387
-589 176 -268 321 -492 321 -497 0 -5 -214 -8 -512 -7 l-513 3 -157 245 c-87
135 -171 268 -188 295 -17 28 -61 97 -99 155 -37 58 -146 227 -241 375 -95
149 -192 299 -215 335 -23 36 -68 107 -101 158 -32 51 -64 100 -70 109 -8 12
-50 -28 -237 -228 l-226 -244 -1 -602 0 -603 -430 0 -430 0 0 2110 0 2110 430
0 430 0 0 -945z"></path>
</g>
</svg>