 <svg version="1.0" xmlns="http://www.w3.org/2000/svg" width="700.000000pt" height="700.000000pt" viewBox="0 0 700.000000 700.000000" preserveAspectRatio="xMidYMid meet">
<metadata>
Created by potrace 1.12, written by Peter Selinger 2001-2015
</metadata>
<g transform="translate(0.000000,700.000000) scale(0.100000,-0.100000)" fill="#000000" stroke="none">
<path d="M1064 3920 c-113 -17 -256 -116 -305 -212 -92 -180 -65 -371 71 -507
133 -133 331 -160 510 -71 56 28 137 117 173 189 30 62 32 71 32 181 0 110 -2
119 -32 180 -84 170 -265 267 -449 240z m-22 -250 l3 -110 84 110 83 110 70 0
c55 0 68 -3 61 -12 -5 -7 -47 -59 -92 -116 l-82 -103 57 -87 c88 -134 124
-191 124 -197 0 -3 -29 -5 -64 -5 l-63 0 -59 92 c-33 50 -62 96 -66 101 -3 6
-18 -3 -32 -19 -22 -25 -25 -38 -26 -101 l0 -73 -55 0 -55 0 0 260 0 260 55 0
54 0 3 -110z"></path>
<path d="M5580 3540 l0 -351 58 3 57 3 0 345 0 345 -57 3 -58 3 0 -351z"></path>
<path d="M1622 3523 l3 -328 60 0 60 0 3 95 c3 91 4 96 34 127 18 18 37 33 42
32 6 0 47 -57 91 -127 l80 -127 73 -3 c43 -2 72 1 72 7 0 5 -40 70 -88 143
-49 73 -101 152 -115 176 l-27 42 114 143 114 142 -76 3 c-89 3 -70 19 -214
-175 -46 -61 -86 -112 -90 -112 -5 -1 -8 64 -8 144 l0 145 -65 0 -65 0 2 -327z"></path>
<path d="M4260 3740 l0 -60 -35 0 c-35 0 -35 0 -35 -44 0 -43 1 -45 33 -48
l32 -3 5 -160 c3 -103 10 -168 18 -182 20 -37 66 -54 130 -51 l57 3 3 48 3 47
-35 0 c-51 0 -57 19 -54 167 l3 128 37 3 c30 3 39 8 44 27 11 46 2 60 -44 63
l-42 3 0 60 0 59 -60 0 -60 0 0 -60z"></path>
<path d="M2346 3679 c-118 -29 -184 -158 -156 -306 23 -120 100 -183 222 -183
162 1 254 132 220 313 -25 133 -149 210 -286 176z m107 -100 c49 -22 75 -107
58 -192 -12 -66 -43 -97 -96 -97 -80 0 -109 47 -103 166 3 71 6 78 36 105 34
31 66 36 105 18z"></path>
<path d="M2938 3680 c-15 -4 -40 -17 -57 -29 -37 -27 -41 -26 -41 4 0 24 -3
25 -55 25 l-55 0 2 -242 3 -243 55 0 55 0 3 178 2 178 33 19 c41 25 78 25 108
1 23 -19 24 -25 29 -198 l5 -178 55 0 55 0 0 195 c0 211 -5 235 -55 271 -30
21 -104 31 -142 19z"></path>
<path d="M3415 3684 c-11 -3 -30 -7 -43 -10 -43 -9 -111 -82 -127 -137 -57
-192 41 -347 219 -347 70 0 138 23 169 58 18 20 18 21 -4 51 -26 35 -35 38
-61 15 -23 -22 -109 -30 -146 -15 -29 12 -62 57 -62 85 0 13 22 16 153 18
l152 3 4 25 c5 37 -18 130 -41 168 -11 18 -37 44 -57 57 -35 23 -116 38 -156
29z m99 -119 c17 -16 26 -34 26 -55 l0 -30 -91 0 -91 0 6 33 c13 70 99 100
150 52z"></path>
<path d="M3886 3679 c-87 -21 -143 -95 -152 -200 -17 -177 67 -289 216 -289
90 0 163 43 189 113 20 52 16 57 -44 57 -50 0 -56 -3 -65 -24 -19 -51 -103
-64 -144 -23 -48 48 -45 199 5 249 46 46 116 30 138 -33 9 -27 13 -29 67 -29
l56 0 -7 38 c-9 51 -47 106 -87 125 -44 21 -123 28 -172 16z"></path>
<path d="M4744 3679 c-17 -5 -37 -16 -44 -24 -18 -21 -40 -19 -40 5 0 18 -7
20 -55 20 l-55 0 0 -335 0 -335 60 0 60 0 0 110 c0 61 2 110 5 110 2 0 19 -9
37 -20 41 -25 114 -26 161 -4 39 19 82 80 98 139 6 22 9 76 6 120 -7 123 -53
197 -134 216 -45 10 -58 10 -99 -2z m76 -119 c29 -31 40 -67 40 -131 0 -48
-27 -116 -51 -129 -32 -18 -91 -12 -116 12 -21 20 -23 30 -23 123 0 104 6 122
45 143 37 21 75 14 105 -18z"></path>
<path d="M5201 3680 c-54 -12 -109 -52 -127 -96 -8 -18 -14 -36 -14 -39 0 -3
25 -5 56 -5 49 0 59 4 84 30 29 31 65 39 100 20 19 -10 45 -73 36 -88 -3 -5
-40 -12 -83 -16 -86 -7 -155 -35 -180 -72 -41 -63 -20 -157 46 -201 46 -31
132 -32 180 -2 l35 21 16 -22 c14 -18 24 -21 70 -18 44 2 54 6 50 18 -2 8 -6
87 -7 175 -2 88 -5 170 -8 182 -7 29 -51 80 -84 97 -36 19 -117 26 -170 16z
m137 -294 c6 -49 -16 -85 -60 -98 -60 -18 -92 -3 -96 45 -5 61 29 88 108 84
41 -2 45 -4 48 -31z"></path>
</g>
</svg>