<svg version="1" xmlns="http://www.w3.org/2000/svg" width="2730.667" height="2730.667" viewBox="0 0 2048.000000 2048.000000"><path d="M1149.4 851.9c-.2.2-.4 16.9-.4 37v36.6H907L882.5 901c-13.4-13.4-24.6-24.2-24.9-24-.2.3-54.1 54-119.6 119.4l-119.2 118.9 4 3.9 4 4 58.3-58.1c32.1-32 84.2-83.9 115.6-115.4l57.3-57.2 115.7 115.6 115.8 115.7 169.8-.1h169.8l-.3-5.9-.3-5.8-92.5-92.5-92.4-92.5H1223v-75.5h-36.6c-20.1 0-36.7.2-37 .4zm62.4 48c0 20.4.2 37.4.5 37.8.3.5 6.3.8 13.4.7l12.8-.1 86.8 86.6c47.7 47.6 86.7 86.8 86.7 87.1 0 .3-71.6.5-159 .5h-159l-87.5-87.5c-48.1-48.1-87.2-87.6-87-87.8.2-.2 54.5-.4 120.7-.4l120.3.1v-37l-.1-36.9h51.4v36.9z"/><path d="M961.5 949.1c-.2.3 33.7 34.6 75.3 76.2l75.7 75.7.3-75.7c.1-41.6 0-75.8-.2-76-.6-.6-150.8-.8-151.1-.2zM777.6 1000c-.1.3-.2 8.8-.2 19l.1 18.5 31.5.3 31.5.2-.2-18.2c-.1-10.1-.2-18.8-.2-19.3-.1-1-62.1-1.5-62.5-.5zM857.9 1001c-.1 1.9-.1 32.8 0 35.3.1 1.6 2.1 1.7 31.4 1.5l31.2-.3v-18.8c0-10.3-.2-18.8-.5-18.8-.3-.1-14.3-.2-31.2-.3-26.9-.1-30.8.1-30.9 1.4zM778.1 1047c-.4.3-.7 8.8-.6 19v18.5l31.3.3c24.6.2 31.2 0 31.3-1 .4-5.1.3-36.8-.1-36.9-1.8-.4-61.3-.3-61.9.1zM858.3 1046.7c-.5.2-.8 8.7-.7 19l.1 18.8h62.8v-38h-30.7c-17 0-31.1.1-31.5.2z"/></svg>